<?xml version="1.0" encoding="UTF-8"?>
<svg width="500px" height="500px" viewBox="0 0 500 500" version="1.1" xmlns="http://www.w3.org/2000/svg" xmlns:xlink="http://www.w3.org/1999/xlink">
    <!-- Generator: Sketch 62 (91390) - https://sketch.com -->
    <title>Artboard Copy 5</title>
    <desc>Created with Sketch.</desc>
    <g id="Artboard-Copy-5" stroke="none" stroke-width="1" fill="none" fill-rule="evenodd">
        <rect fill="#FFFFFF" x="0" y="0" width="500" height="500"></rect>
        <text id="Access-&amp;-connectivit" font-family="IBMPlexSans, IBM Plex Sans" font-size="48" font-weight="normal" fill="#000000">
            <tspan x="152.032" y="94">Access &amp; </tspan>
            <tspan x="72.64" y="156">connectivity hub</tspan>
        </text>
        <g id="Organization-/-Data-/-data--connected-/-32" transform="translate(109.000000, 182.000000)" fill="#1192E8">
            <path d="M264.375,264.375 L211.5,264.375 L211.5,246.75 L246.75,246.75 L246.75,35.25 L211.5,35.25 L211.5,17.625 L264.375,17.625 L264.375,264.375 Z M219.519375,172.636875 C216.872387,159.845571 208.109124,149.171521 196.078125,144.084375 C186.208125,139.971875 175.104375,139.971875 165.234375,144.084375 C163.280933,144.972103 161.395795,146.003038 159.594375,147.16875 L134.83125,122.405625 C145.694019,105.212801 141.895713,82.6019732 126.011416,69.902286 C110.127118,57.2025989 87.2347524,58.4739126 72.8543325,72.8543325 C58.4739126,87.2347524 57.2025989,110.127118 69.902286,126.011416 C82.6019732,141.895713 105.212801,145.694019 122.405625,134.83125 L147.16875,159.594375 C141.676696,168.22551 139.749463,178.651524 141.793125,188.675625 C144.440113,201.466929 153.203376,212.140979 165.234375,217.228125 C175.104375,221.340625 186.208125,221.340625 196.078125,217.228125 C208.109124,212.140979 216.872387,201.466929 219.519375,188.675625 C220.575844,183.381567 220.575844,177.930933 219.519375,172.636875 L219.519375,172.636875 Z M101.34375,123.375 C89.1762266,123.375 79.3125,113.511273 79.3125,101.34375 C79.3125,89.1762266 89.1762266,79.3125 101.34375,79.3125 C113.511273,79.3125 123.375,89.1762266 123.375,101.34375 C123.375,107.186801 121.053857,112.790535 116.922196,116.922196 C112.790535,121.053857 107.186801,123.375 101.34375,123.375 L101.34375,123.375 Z M70.5,264.375 L17.625,264.375 L17.625,17.625 L70.5,17.625 L70.5,35.25 L35.25,35.25 L35.25,246.75 L70.5,246.75 L70.5,264.375 Z" id="Fill"></path>
        </g>
    </g>
</svg>