<?xml version="1.0" encoding="UTF-8"?>
<svg width="40px" height="41px" viewBox="0 0 40 41" version="1.1" xmlns="http://www.w3.org/2000/svg" xmlns:xlink="http://www.w3.org/1999/xlink">
    <!-- Generator: Sketch 62 (91390) - https://sketch.com -->
    <title>Group 2</title>
    <desc>Created with Sketch.</desc>
    <g id="Page-1" stroke="none" stroke-width="1" fill="none" fill-rule="evenodd">
        <g id="iPhone-8" transform="translate(-18.000000, -28.000000)" fill="#FFFFFF">
            <g id="Group-2" transform="translate(19.000000, 29.000000)">
                <path d="M6.97045796,0.945806307 C5.34731943,0.945806307 3.82551294,1.59153941 2.68621211,2.76551414 C1.54599837,3.93854895 0.918835169,5.50541515 0.918835169,7.17661377 C0.918835169,8.84875232 1.54599837,10.4156185 2.68621211,11.5886533 L26.3139238,35.9169064 C27.4541376,37.0908811 28.9750312,37.7366142 30.5990826,37.7366142 C32.223134,37.7366142 33.7449405,37.0908811 34.8842413,35.9169064 C36.0235422,34.7438716 36.6507054,33.1770054 36.6507054,31.5048668 C36.6507054,29.8336682 36.0235422,28.266802 34.8842413,27.0937672 L11.2556167,2.76551414 C10.115403,1.59153941 8.59359649,0.945806307 6.97045796,0.945806307 M30.5990826,38.6821855 C28.8134476,38.6821855 27.0278127,37.9828763 25.6675897,36.583318 L2.03896508,12.254125 C-0.679655026,9.45500829 -0.679655026,4.89915918 2.03896508,2.10004248 C4.75849808,-0.700014158 9.18241783,-0.700014158 11.9019508,2.10004248 L35.5305755,26.4273556 C38.2501085,29.2274122 38.2501085,33.7832613 35.5305755,36.583318 C34.1703525,37.9828763 32.3856305,38.6821855 30.5990826,38.6821855" id="Fill-1" stroke="#FFFFFF"></path>
                <path d="M30.9209453,0.945806307 C29.2798477,0.945806307 27.7429906,1.59153941 26.5908091,2.76551414 L2.71417622,27.0937672 C1.56291718,28.266802 0.928248729,29.8336682 0.928248729,31.5048668 C0.928248729,33.1770054 1.56291718,34.7438716 2.71417622,35.9169064 C3.86543526,37.0908811 5.40321477,37.7366142 7.0443124,37.7366142 C8.68448755,37.7366142 10.2222671,37.0908811 11.3744486,35.9169064 L35.250159,11.5886533 C36.4023405,10.4156185 37.0360865,8.84875232 37.0360865,7.17661377 C37.0360865,5.50541515 36.4023405,3.93854895 35.250159,2.76551414 C34.0988999,1.59153941 32.5611204,0.945806307 30.9209453,0.945806307 M7.0443124,38.6821855 C5.23901276,38.6821855 3.43555809,37.9828763 2.06105811,36.583318 C-0.68701937,33.7832613 -0.68701937,29.2274122 2.06105811,26.4273556 L25.937691,2.10004248 C28.6857685,-0.700014158 33.1561221,-0.700014158 35.9041996,2.10004248 C38.6513546,4.89915918 38.6513546,9.45500829 35.9041996,12.254125 L12.0275667,36.583318 C10.6530667,37.9828763 8.84868956,38.6821855 7.0443124,38.6821855" id="Fill-3" stroke="#FFFFFF"></path>
                <path d="M26.4865462,26.9863897 C26.4865462,26.9863897 26.434595,25.9817219 27.6701691,25.8232734 C27.6701691,25.8232734 28.7490235,25.5229178 29.1438531,26.6781987 C29.1438531,26.6781987 29.4590241,27.3041572 29.2494873,27.8064911 C29.2494873,27.8064911 28.9888652,28.3723785 29.3213532,28.7058168 L31.1690863,30.6106809 C31.1690863,30.6106809 31.3535133,30.9545663 31.7743185,30.8222357 C31.7743185,30.8222357 32.8263315,30.1605828 33.590015,30.9806842 C33.590015,30.9806842 34.3259911,31.5100066 33.9320274,32.6208871 C33.9320274,32.6208871 33.6947833,33.3086579 32.7743802,33.5202127 C32.7743802,33.5202127 32.4063921,33.5472012 32.4323678,33.7848739 C32.4323678,33.7848739 32.3267335,34.4726448 31.8799527,34.7634238 C31.8799527,34.7634238 31.0487326,35.5043011 30.0175001,34.9749787 C30.0175001,34.9749787 29.4070728,34.6310933 29.4330484,33.5202127 L29.5914998,33.0709852 C29.5914998,33.0709852 29.8806951,32.6208871 29.5118412,32.2508838 L27.4597665,30.2136891 C27.4597665,30.2136891 27.302181,30.0291228 26.9861442,30.1605828 C26.9861442,30.1605828 25.9609727,30.7430115 25.1453379,30.0291228 C25.1453379,30.0291228 24.3297032,29.3143634 24.8033255,28.2034829 C24.8033255,28.2034829 25.1713136,27.41037 25.9869483,27.4895942 C25.9869483,27.4895942 26.565339,27.7542554 26.4865462,26.9863897 Z" id="Fill-6"></path>
            </g>
        </g>
    </g>
</svg>